HIERARCHY
ROOT Hips
{
 OFFSET 0.000000 0.000000 0.000000
 CHANNELS 6 Xposition Yposition Zposition Yrotation Xrotation Zrotation
 JOINT Chest
 {
  OFFSET 0.000000 9.585900 0.002600
  CHANNELS 3 Yrotation Xrotation Zrotation
  JOINT Chest2
  {
   OFFSET 0.000000 9.601200 -0.005300
   CHANNELS 3 Yrotation Xrotation Zrotation
   JOINT Chest3
   {
    OFFSET 0.000000 9.561800 0.000000
    CHANNELS 3 Yrotation Xrotation Zrotation
    JOINT Chest4
    {
     OFFSET 0.000000 9.552100 0.000000
     CHANNELS 3 Yrotation Xrotation Zrotation
     JOINT Neck
     {
      OFFSET 0.000000 14.453000 0.000000
      CHANNELS 3 Yrotation Xrotation Zrotation
      JOINT Head
      {
       OFFSET 0.000000 8.936500 -0.011300
       CHANNELS 3 Yrotation Xrotation Zrotation
       End Site
       {
        OFFSET 0.000000 17.073600 -0.006000
       }
      }
     }
     JOINT RightCollar
     {
      OFFSET -2.921100 9.558500 0.000000
      CHANNELS 3 Yrotation Xrotation Zrotation
      JOINT RightShoulder
      {
       OFFSET -13.519700 0.000000 0.000000
       CHANNELS 3 Yrotation Xrotation Zrotation
       JOINT RightElbow
       {
        OFFSET 0.000000 -29.696600 0.000000
        CHANNELS 3 Yrotation Xrotation Zrotation
        JOINT RightWrist
        {
         OFFSET 0.000000 -24.004700 0.000000
         CHANNELS 3 Yrotation Xrotation Zrotation
         End Site
         {
          OFFSET 0.000000 -17.728500 0.000000
         }
        }
       }
      }
     }
     JOINT LeftCollar
     {
      OFFSET 2.921100 9.558500 0.000000
      CHANNELS 3 Yrotation Xrotation Zrotation
      JOINT LeftShoulder
      {
       OFFSET 13.519700 0.000000 0.000000
       CHANNELS 3 Yrotation Xrotation Zrotation
       JOINT LeftElbow
       {
        OFFSET 0.000000 -29.696600 0.000000
        CHANNELS 3 Yrotation Xrotation Zrotation
        JOINT LeftWrist
        {
         OFFSET 0.000000 -24.004700 0.000000
         CHANNELS 3 Yrotation Xrotation Zrotation
         End Site
         {
          OFFSET 0.000000 -17.728500 0.000000
         }
        }
       }
      }
     }
    }
   }
  }
 }
 JOINT RightHip
 {
  OFFSET -7.771700 -0.012900 -0.001300
  CHANNELS 3 Yrotation Xrotation Zrotation
  JOINT RightKnee
  {
   OFFSET 0.000000 -40.869800 0.001200
   CHANNELS 3 Yrotation Xrotation Zrotation
   JOINT RightAnkle
   {
    OFFSET 0.000000 -39.717900 0.002100
    CHANNELS 3 Yrotation Xrotation Zrotation
    JOINT RightToe
    {
     OFFSET 0.000000 -4.965400 11.033500
     CHANNELS 3 Yrotation Xrotation Zrotation
     End Site
     {
      OFFSET 0.000000 -1.423100 5.872300
     }
    }
   }
  }
 }
 JOINT LeftHip
 {
  OFFSET 7.771700 -0.012900 -0.001300
  CHANNELS 3 Yrotation Xrotation Zrotation
  JOINT LeftKnee
  {
   OFFSET 0.000000 -40.869800 0.001200
   CHANNELS 3 Yrotation Xrotation Zrotation
   JOINT LeftAnkle
   {
    OFFSET 0.000000 -39.717900 0.002100
    CHANNELS 3 Yrotation Xrotation Zrotation
    JOINT LeftToe
    {
     OFFSET 0.000000 -4.965400 11.033500
     CHANNELS 3 Yrotation Xrotation Zrotation
     End Site
     {
      OFFSET 0.000000 -1.423100 5.872300
     }
    }
   }
  }
 }
}
MOTION
Frames: 12
Frame Time: 0.008333
0.000000 85.388000 0.000000 0.000000 -5.767877 0.000000 0.000000 11.653817 0.000000 0.000000 -5.885947 0.000000 0.000000 -0.000000 0.000000 0.000000 -0.000000 0.000000 0.000000 12.528835 0.000000 0.000000 0.711642 0.000000 0.000000 -0.000000 0.000000 0.000000 0.000000 -90.000000 0.000000 -2.309062 0.000000 0.000000 2.309062 0.000000 0.000000 -0.000000 0.000000 0.000000 -0.000000 90.000000 0.000000 -2.309062 0.000000 0.000000 2.309062 0.000000 0.000000 8.520406 0.000000 0.000000 1.905762 0.000000 -0.000000 -4.658285 0.000000 0.000000 -0.000000 0.000000 0.000000 8.520406 0.000000 0.000000 1.905762 0.000000 -0.000000 -4.658285 0.000000 0.000000 -0.000000 0.000000
-26.985838 48.833505 28.579935 171.900191 -28.530441 -0.423458 0.294086 13.894160 1.726044 0.023665 7.950908 1.340590 0.059178 9.938319 1.680409 0.024258 7.949342 1.336487 -0.859457 16.703411 -2.820743 -0.618804 -4.750774 -4.934240 5.224489 3.970813 -4.460278 0.904842 -18.614568 -8.256827 44.224514 -61.385731 -33.510270 13.663672 12.135966 -34.419509 -3.414106 1.812874 -4.134925 6.700853 -24.770676 -0.691424 -70.041320 -44.096371 45.634799 -10.214963 17.239278 34.482208 24.072888 -52.806214 -29.134467 -112.963588 71.350283 -102.803622 2.399475 -6.279029 2.694135 0.144875 -0.797928 0.066437 -4.094097 -54.958319 15.606301 118.129889 81.297061 115.293992 -5.034439 -12.000987 -1.725928 0.251376 0.629801 0.117457
-26.986621 48.833198 28.581635 171.897393 -28.521974 -0.421491 0.293359 13.889149 1.728107 0.022740 7.950245 1.340490 0.060563 9.936793 1.678528 0.026903 7.950167 1.338046 -0.861643 16.699437 -2.822802 -0.613106 -4.761250 -4.936750 5.216053 3.975125 -4.460142 0.902442 -18.612043 -8.259180 44.241309 -61.400395 -33.516937 13.668804 12.136373 -34.420131 -3.410445 1.808138 -4.138853 6.687143 -24.765273 -0.687187 -70.042300 -44.098346 45.639580 -10.211735 17.239288 34.479689 24.075050 -52.814896 -29.134503 -112.940245 71.346641 -102.784840 2.402681 -6.277134 2.694406 0.142475 -0.794923 0.066835 -4.095668 -54.966690 15.609057 118.123358 81.299865 115.284799 -5.028101 -11.998252 -1.726838 0.256356 0.630114 0.117762
-26.987703 48.833162 28.582740 171.900834 -28.517091 -0.420803 0.286834 13.885563 1.727267 0.023141 7.950155 1.339544 0.059019 9.936820 1.678653 0.022665 7.949950 1.340482 -0.857237 16.696301 -2.826769 -0.607943 -4.792137 -4.934968 5.219094 3.979090 -4.460809 0.907145 -18.613790 -8.265580 44.241934 -61.407546 -33.514017 13.670869 12.139890 -34.424237 -3.405288 1.806536 -4.148273 6.664687 -24.757281 -0.670777 -70.036260 -44.105911 45.651887 -10.208589 17.242652 34.479083 24.074496 -52.821815 -29.134951 -112.940934 71.347766 -102.789763 2.387429 -6.274814 2.696447 0.150317 -0.796172 0.066920 -4.097552 -54.973387 15.604372 118.118807 81.299138 115.279391 -5.017435 -11.993799 -1.726183 0.253114 0.628365 0.115603
-26.988374 48.833393 28.583176 171.898153 -28.516589 -0.419775 0.286765 13.884484 1.728228 0.023989 7.951145 1.339610 0.053311 9.937633 1.681755 0.024450 7.949646 1.338622 -0.856878 16.689851 -2.827176 -0.603866 -4.800286 -4.937321 5.228477 3.982510 -4.463792 0.904223 -18.613701 -8.268699 44.250614 -61.414588 -33.523151 13.668059 12.143500 -34.427428 -3.410167 1.809607 -4.154169 6.664120 -24.756432 -0.663491 -70.039745 -44.112409 45.663428 -10.209690 17.236371 34.474394 24.075815 -52.824378 -29.132203 -112.936525 71.348775 -102.787879 2.384773 -6.268511 2.694348 0.153196 -0.799410 0.069505 -4.095140 -54.973423 15.602966 118.128668 81.302426 115.289679 -5.009152 -11.997761 -1.723321 0.259658 0.631536 0.111942
-26.989268 48.834470 28.581587 171.902412 -28.528557 -0.419981 0.279248 13.896077 1.726227 0.024418 7.951184 1.340280 0.050291 9.937936 1.680993 0.026603 7.951704 1.338882 -0.854795 16.682687 -2.826536 -0.602401 -4.799518 -4.939859 5.235961 3.986627 -4.465789 0.902870 -18.612169 -8.277786 44.239366 -61.425651 -33.516977 13.665499 12.138603 -34.430275 -3.410571 1.812740 -4.161175 6.660838 -24.756264 -0.656364 -70.048144 -44.118744 45.679075 -10.212353 17.238588 34.467373 24.066256 -52.814691 -29.124670 -112.956340 71.349976 -102.807464 2.373109 -6.270375 2.688661 0.151680 -0.801218 0.074029 -4.094525 -54.961077 15.596762 118.135616 81.302820 115.299011 -5.010757 -11.999734 -1.724406 0.254731 0.631135 0.111586
-26.990089 48.835180 28.580314 171.902711 -28.537513 -0.420260 0.275637 13.905141 1.726339 0.019607 7.951039 1.340740 0.049204 9.938651 1.680245 0.020449 7.951195 1.339829 -0.846849 16.670111 -2.829601 -0.593374 -4.808655 -4.942269 5.255652 3.997731 -4.470615 0.891861 -18.618960 -8.278468 44.238032 -61.437267 -33.518483 13.665646 12.139309 -34.426893 -3.402604 1.823031 -4.164907 6.666725 -24.763522 -0.660259 -70.053324 -44.121640 45.686970 -10.213384 17.240627 34.464126 24.059217 -52.807757 -29.117624 -112.968254 71.350616 -102.820929 2.374939 -6.271951 2.687204 0.158263 -0.802617 0.074453 -4.093812 -54.950705 15.594568 118.137967 81.301725 115.305034 -5.016960 -12.005811 -1.728216 0.252200 0.633456 0.112936
-26.991464 48.835259 28.579673 171.898831 -28.540905 -0.417507 0.276411 13.906986 1.726938 0.013703 7.951896 1.340916 0.049302 9.940749 1.679141 0.010369 7.950858 1.341508 -0.835992 16.665180 -2.836671 -0.586568 -4.828658 -4.946333 5.272349 4.005992 -4.473987 0.885410 -18.625005 -8.278957 44.247900 -61.441888 -33.524858 13.659407 12.138308 -34.428341 -3.386285 1.825251 -4.173479 6.666448 -24.764397 -0.660794 -70.058582 -44.123670 45.693537 -10.214556 17.239873 34.459485 24.054197 -52.806600 -29.110385 -112.953671 71.348933 -102.816066 2.388094 -6.270908 2.688487 0.152421 -0.802078 0.073853 -4.090261 -54.946927 15.592042 118.142929 81.297616 115.311396 -5.019591 -12.010547 -1.730340 0.252995 0.635102 0.113099
-26.993043 48.834950 28.579342 171.891023 -28.541604 -0.414015 0.279553 13.903573 1.728912 0.009545 7.952585 1.340104 0.053772 9.944990 1.677317 -0.001913 7.947697 1.344493 -0.830644 16.661120 -2.840118 -0.573115 -4.871701 -4.972781 5.282904 4.015797 -4.473498 0.883909 -18.632651 -8.280335 44.248657 -61.461447 -33.536401 13.670654 12.146167 -34.413608 -3.371729 1.832119 -4.182223 6.675208 -24.762799 -0.666363 -70.073944 -44.130301 45.707151 -10.215645 17.236916 34.450917 24.055676 -52.807074 -29.109097 -112.932327 71.343385 -102.799889 2.407479 -6.265651 2.691066 0.143557 -0.803316 0.070812 -4.082021 -54.946969 15.590534 118.161573 81.296196 115.331649 -5.017925 -12.014632 -1.731947 0.252672 0.635641 0.114581
-26.995427 48.835162 28.577610 171.896072 -28.550845 -0.412992 0.268203 13.907469 1.725627 0.010922 7.955676 1.339103 0.044968 9.943512 1.678461 -0.006156 7.944168 1.343954 -0.824548 16.658117 -2.847434 -0.558519 -4.886247 -4.994759 5.293015 4.030448 -4.470334 0.888735 -18.640198 -8.286893 44.249231 -61.470663 -33.549549 13.673367 12.146044 -34.402501 -3.356110 1.843771 -4.190142 6.681591 -24.764483 -0.671217 -70.085198 -44.140223 45.719812 -10.226323 17.246569 34.444848 24.049588 -52.797106 -29.105346 -112.931985 71.339793 -102.805792 2.406927 -6.268629 2.700231 0.140106 -0.801712 0.067427 -4.078227 -54.939150 15.580805 118.182647 81.296834 115.354265 -5.015918 -12.016387 -1.733072 0.262287 0.634166 0.116761
-26.997756 48.834544 28.577214 171.892051 -28.551568 -0.411195 0.261742 13.900503 1.724168 0.016568 7.961139 1.338921 0.036893 9.940240 1.678744 -0.004078 7.944973 1.342828 -0.824449 16.650224 -2.854933 -0.540879 -4.900346 -5.019762 5.296799 4.040893 -4.461415 0.894404 -18.647682 -8.297018 44.249213 -61.476049 -33.558285 13.673257 12.144589 -34.393826 -3.347643 1.850358 -4.194117 6.688103 -24.764629 -0.675920 -70.083651 -44.157682 45.733321 -10.251576 17.241487 34.423647 24.052207 -52.796229 -29.103495 -112.922266 71.338538 -102.798149 2.407529 -6.270847 2.699820 0.143612 -0.797980 0.068650 -4.076940 -54.938941 15.576826 118.182487 81.292625 115.354396 -5.005868 -12.019029 -1.733041 0.254185 0.634446 0.113808
-27.000195 48.834154 28.576240 171.889577 -28.556696 -0.410494 0.250064 13.894146 1.721633 -0.002016 7.948103 1.340420 0.049481 9.953480 1.675694 -0.016863 7.933743 1.346342 -0.809402 16.654799 -2.872584 -0.522474 -4.901709 -5.041941 5.319753 4.071029 -4.457256 0.896127 -18.659388 -8.299128 44.264309 -61.465377 -33.570256 13.669188 12.142890 -34.391392 -3.320881 1.873447 -4.215518 6.689941 -24.762413 -0.671387 -70.083547 -44.166578 45.742344 -10.242169 17.236021 34.427128 24.050071 -52.791010 -29.097453 -112.913131 71.334114 -102.792010 2.411590 -6.275245 2.699923 0.144915 -0.793824 0.070046 -4.078295 -54.934032 15.574325 118.177367 81.287740 115.348545 -4.997605 -12.020061 -1.733218 0.248889 0.633437 0.111670
